<svg width="1518" height="1278" viewBox="0 0 1518 1278" fill="none" xmlns="http://www.w3.org/2000/svg">
<circle cx="692.5" cy="349.5" r="89.5" fill="#FFF510" fill-opacity="0.4"/>
<path d="M130.525 429.298C79.6513 501.067 0 535.672 0 535.672V1277.75H249.745H1518V445.723C1493.68 437.156 1439.27 409.101 1416.25 365.411C1387.47 310.8 1372.06 365.411 1360.75 365.411C1349.45 365.411 1335.06 307.587 1316.56 256.188C1298.06 204.788 1269.28 330.074 1248.73 365.411C1228.17 400.748 1162.4 394.324 1140.81 330.074C1119.23 265.825 1115.12 297.95 1094.56 330.074C1074.01 362.199 1035.56 336.088 1001.04 365.411C906.483 445.723 868.456 407.173 781.097 420.023C693.737 432.873 594.045 334.535 562.184 302.411C530.324 270.286 511.824 208.001 451.186 262.613C390.548 317.224 363.827 405.152 266.19 384.686C212.853 373.506 181.399 357.528 130.525 429.298Z" fill="url(#paint0_linear_411_25)"/>
<path d="M1042.64 28.8722C1042.93 29.8029 1044.25 29.8029 1044.55 28.8722L1047.31 20.1688C1047.41 19.8511 1047.66 19.6045 1047.98 19.5109L1056.91 16.9006C1057.87 16.6201 1057.87 15.2615 1056.91 14.981L1047.99 12.3707C1047.67 12.2772 1047.42 12.0305 1047.32 11.7129L1044.57 3.00939C1044.27 2.07869 1042.95 2.07869 1042.66 3.00939L1039.9 11.7129C1039.79 12.0305 1039.54 12.2772 1039.22 12.3707L1030.29 14.981C1029.34 15.2615 1029.33 16.6201 1030.29 16.9006L1039.22 19.5109C1039.54 19.6045 1039.79 19.8511 1039.89 20.1688L1042.64 28.8722Z" fill="white"/>
<circle cx="1152.5" cy="46.5" r="3.5" fill="white"/>
<circle cx="77.5" cy="505.5" r="3.5" fill="white"/>
<circle cx="84.5" cy="25.5" r="3.5" fill="white"/>
<circle cx="926.5" cy="333.5" r="3.5" fill="white"/>
<path d="M693.23 75.2289C693.566 74.312 694.882 74.3697 695.135 75.3123L699.962 93.2928C700.048 93.6145 700.289 93.872 700.605 93.9794L718.69 100.141C719.636 100.464 719.575 101.821 718.605 102.059L700.041 106.615C699.718 106.695 699.455 106.93 699.34 107.243L692.931 124.731C692.595 125.648 691.28 125.59 691.027 124.648L686.2 106.667C686.113 106.345 685.872 106.088 685.557 105.981L667.472 99.8185C666.526 99.4963 666.586 98.139 667.557 97.9008L686.121 93.3447C686.444 93.2653 686.707 93.0299 686.822 92.717L693.23 75.2289Z" fill="#FAD17F"/>
<path d="M108.987 641.214C109.296 640.263 110.654 640.301 110.906 641.268L117.04 664.79C117.124 665.113 117.363 665.372 117.678 665.481L139.997 673.259C140.919 673.58 140.88 674.896 139.941 675.164L117.203 681.671C116.883 681.763 116.629 682.008 116.526 682.325L109.025 705.463C108.716 706.414 107.358 706.376 107.106 705.409L100.972 681.887C100.888 681.564 100.649 681.305 100.334 681.196L78.0146 673.418C77.0932 673.097 77.1318 671.781 78.0705 671.513L100.809 665.006C101.129 664.914 101.383 664.669 101.486 664.352L108.987 641.214Z" fill="#FAD17F"/>
<defs>
<linearGradient id="paint0_linear_411_25" x1="759" y1="240.088" x2="759" y2="1342" gradientUnits="userSpaceOnUse">
<stop offset="0.149614" stop-color="#F631D7" stop-opacity="0.23"/>
<stop offset="0.654833" stop-color="#FFF500" stop-opacity="0.42"/>
</linearGradient>
</defs>
</svg>
