<svg width="1510" height="1323" viewBox="0 0 1510 1323" fill="none" xmlns="http://www.w3.org/2000/svg">
<path d="M129.838 421.903C79.2316 492.76 0 526.925 0 526.925V1259.57H248.429L1510 1323V438.12C1485.8 429.662 1431.69 401.963 1408.79 358.829C1380.16 304.912 1364.83 358.829 1353.58 358.829C1342.34 358.829 1328.02 301.74 1309.62 250.995C1291.22 200.249 1262.59 323.942 1242.15 358.829C1221.7 393.717 1156.27 387.374 1134.8 323.942C1113.33 260.509 1109.24 292.225 1088.79 323.942C1068.35 355.658 1030.1 329.879 995.762 358.829C901.706 438.12 863.879 400.06 776.98 412.747C690.081 425.433 590.914 328.346 559.221 296.63C527.529 264.914 509.127 203.42 448.808 257.338C388.49 311.255 361.909 398.064 264.787 377.859C211.731 366.821 180.443 351.046 129.838 421.903Z" fill="url(#paint0_linear_2612_23)"/>
<path d="M1390.64 326.872C1390.93 327.803 1392.25 327.803 1392.55 326.872L1395.31 318.169C1395.41 317.851 1395.66 317.604 1395.98 317.511L1404.91 314.901C1405.87 314.62 1405.87 313.262 1404.91 312.981L1395.99 310.371C1395.67 310.277 1395.42 310.031 1395.32 309.713L1392.57 301.009C1392.27 300.079 1390.95 300.079 1390.66 301.009L1387.9 309.713C1387.79 310.031 1387.54 310.277 1387.22 310.371L1378.29 312.981C1377.34 313.262 1377.33 314.62 1378.29 314.901L1387.22 317.511C1387.54 317.604 1387.79 317.851 1387.89 318.169L1390.64 326.872Z" fill="white"/>
<path d="M1034.64 28.8722C1034.93 29.8029 1036.25 29.8029 1036.55 28.8722L1039.31 20.1688C1039.41 19.8511 1039.66 19.6045 1039.98 19.5109L1048.91 16.9006C1049.87 16.6201 1049.87 15.2615 1048.91 14.981L1039.99 12.3707C1039.67 12.2772 1039.42 12.0305 1039.32 11.7129L1036.57 3.00939C1036.27 2.07869 1034.95 2.07869 1034.66 3.00939L1031.9 11.7129C1031.79 12.0305 1031.54 12.2772 1031.22 12.3707L1022.29 14.981C1021.34 15.2615 1021.33 16.6201 1022.29 16.9006L1031.22 19.5109C1031.54 19.6045 1031.79 19.8511 1031.89 20.1688L1034.64 28.8722Z" fill="white"/>
<circle cx="1144.5" cy="46.5" r="3.5" fill="white"/>
<circle cx="69.5" cy="505.5" r="3.5" fill="white"/>
<circle cx="76.5" cy="25.5" r="3.5" fill="white"/>
<circle cx="918.5" cy="333.5" r="3.5" fill="white"/>
<path d="M685.23 75.2289C685.566 74.312 686.882 74.3697 687.135 75.3123L691.962 93.2928C692.048 93.6145 692.289 93.872 692.605 93.9794L710.69 100.141C711.636 100.464 711.575 101.821 710.605 102.059L692.041 106.615C691.718 106.695 691.455 106.93 691.34 107.243L684.931 124.731C684.595 125.648 683.28 125.59 683.027 124.648L678.2 106.667C678.113 106.345 677.872 106.088 677.557 105.981L659.472 99.8185C658.526 99.4963 658.586 98.139 659.557 97.9008L678.121 93.3447C678.444 93.2653 678.707 93.0299 678.822 92.717L685.23 75.2289Z" fill="#FAD17F"/>
<path d="M107.987 368.214C108.296 367.263 109.654 367.301 109.906 368.268L116.04 391.79C116.124 392.113 116.363 392.372 116.678 392.481L138.997 400.259C139.919 400.58 139.88 401.896 138.942 402.164L116.203 408.671C115.883 408.763 115.629 409.008 115.526 409.325L108.025 432.463C107.717 433.414 106.358 433.376 106.106 432.409L99.9721 408.887C99.8881 408.564 99.649 408.305 99.3344 408.196L77.0149 400.418C76.0935 400.097 76.1321 398.781 77.0707 398.513L99.809 392.006C100.129 391.914 100.383 391.669 100.486 391.352L107.987 368.214Z" fill="#FAD17F"/>
<defs>
<linearGradient id="paint0_linear_2612_23" x1="755" y1="235.1" x2="755" y2="1323" gradientUnits="userSpaceOnUse">
<stop offset="0.206907" stop-color="#26223F"/>
<stop offset="0.884005" stop-color="#F631D7"/>
</linearGradient>
</defs>
</svg>
