<svg width="104" height="100" viewBox="0 0 104 100" fill="none" xmlns="http://www.w3.org/2000/svg">
<path d="M51.0659 1.0096C51.3614 0.0788942 52.6784 0.0788961 52.9725 1.0096L64.4171 37.2285C64.5175 37.5462 64.7695 37.7928 65.0892 37.8864L102.642 48.8715C103.601 49.152 103.599 50.5106 102.64 50.7911L65.0708 61.7763C64.7509 61.8698 64.4985 62.1164 64.3976 62.4341L52.897 98.653C52.6014 99.5837 51.2844 99.5837 50.9903 98.653L39.5457 62.4341C39.4453 62.1164 39.1933 61.8698 38.8736 61.7763L1.32114 50.7911C0.362291 50.5106 0.363341 49.152 1.32262 48.8715L38.8921 37.8864C39.2119 37.7928 39.4643 37.5462 39.5652 37.2285L51.0659 1.0096Z" fill="#797067"/>
</svg>
