<svg width="1820" height="150" viewBox="0 0 1820 150" fill="none" xmlns="http://www.w3.org/2000/svg">
<rect width="91" height="74.5" fill="black"/>
<rect x="91" y="75" width="91" height="74.5" fill="black"/>
<rect x="182" width="91" height="74.5" fill="black"/>
<rect x="273" y="75" width="91" height="74.5" fill="black"/>
<rect x="364" width="91" height="74.5" fill="black"/>
<rect x="455" y="75" width="91" height="74.5" fill="black"/>
<rect x="546" width="91" height="74.5" fill="black"/>
<rect x="637" y="75" width="91" height="74.5" fill="black"/>
<rect x="728" width="91" height="74.5" fill="black"/>
<rect x="819" y="75" width="91" height="74.5" fill="black"/>
<rect x="910" width="91" height="74.5" fill="black"/>
<rect x="1001" y="75" width="91" height="74.5" fill="black"/>
<rect x="1092" width="91" height="74.5" fill="black"/>
<rect x="1183" y="75" width="91" height="74.5" fill="black"/>
<rect x="1274" width="91" height="74.5" fill="black"/>
<rect x="1365" y="75" width="91" height="74.5" fill="black"/>
<rect x="1456" width="91" height="74.5" fill="black"/>
<rect x="1547" y="75" width="91" height="74.5" fill="black"/>
<rect x="1638" width="91" height="74.5" fill="black"/>
<rect x="1729" y="75" width="91" height="74.5" fill="black"/>
</svg>
