<svg width="2560" height="283" viewBox="0 0 2560 283" fill="none" xmlns="http://www.w3.org/2000/svg">
<path d="M0 155.124L38.7556 165.814C77.5111 176.104 154.667 198.082 232.889 171.109C310.222 144.135 387.556 70.2066 465.778 53.9224C543.111 38.2376 620.444 80.1969 698.667 80.4966C775.822 80.1969 853.333 38.2376 931.556 37.9379C1008.53 38.2376 1086.22 80.1969 1164.44 96.4811C1241.24 112.166 1319.11 102.176 1395.56 75.2017C1473.96 48.2279 1552 6.26865 1628.44 0.574176C1706.67 -4.72068 1784.89 27.2483 1861.33 69.9069C1939.38 112.166 2017.78 166.113 2094.22 181.798C2172.09 198.082 2248.89 176.104 2327.11 176.403C2404.8 176.104 2481.78 198.082 2520.89 208.372L2560 219.062V283H2521.24C2482.49 283 2405.33 283 2327.11 283C2249.78 283 2172.44 283 2094.22 283C2016.89 283 1939.56 283 1861.33 283C1784.18 283 1706.67 283 1628.44 283C1551.47 283 1473.78 283 1395.56 283C1318.76 283 1240.89 283 1164.44 283C1086.04 283 1008 283 931.556 283C853.333 283 775.111 283 698.667 283C620.622 283 542.222 283 465.778 283C387.911 283 311.111 283 232.889 283C155.2 283 78.2222 283 39.1111 283H0V155.124Z" fill="url(#paint0_linear_284_36)"/>
<defs>
<linearGradient id="paint0_linear_284_36" x1="1280" y1="0" x2="1280" y2="283" gradientUnits="userSpaceOnUse">
<stop stop-color="#29C6FF" stop-opacity="0"/>
<stop offset="1" stop-color="#29C6FF"/>
</linearGradient>
</defs>
</svg>
